<svg xmlns="http://www.w3.org/2000/svg" width="24" height="24" version="1.0" id="heavy">
  <path fill="#010101" d="M9.861 16.409a2.303 2.303 0 0 1-1.639-.672c-.909-.907-.911-2.408-.004-3.346.394-.393.901-.626 1.513-.698l2.279-.171a.334.334 0 0 1 .271.097c.075.073.143.203.134.307l-.141 2.114a.37.37 0 0 1-.031.124 2.341 2.341 0 0 1-.694 1.546 2.377 2.377 0 0 1-1.688.699zm1.825-4.159-1.889.14c-.443.052-.801.214-1.081.493-.638.66-.64 1.721 0 2.359.613.612 1.708.602 2.337-.027.317-.317.492-.731.492-1.167 0-.05.013-.101.035-.147l.106-1.651z"></path>
  <path fill="#010101" d="M9.861 16.409a2.303 2.303 0 0 1-1.639-.672c-.909-.907-.911-2.408-.004-3.346.394-.393.901-.626 1.513-.698l2.279-.171a.334.334 0 0 1 .271.097c.075.073.143.203.134.307l-.141 2.114a.37.37 0 0 1-.031.124 2.341 2.341 0 0 1-.694 1.546 2.377 2.377 0 0 1-1.688.699zm1.825-4.159-1.889.14c-.443.052-.801.214-1.081.493-.638.66-.64 1.721 0 2.359.613.612 1.708.602 2.337-.027.317-.317.492-.731.492-1.167 0-.05.013-.101.035-.147l.106-1.651zm-.835-1.366c-.429 0-.83-.165-1.128-.463a1.556 1.556 0 0 1-.46-1.132c.006-.428.182-.826.495-1.122a1.615 1.615 0 0 1 1-.461l1.429-.115a.394.394 0 0 1 .269.103.35.35 0 0 1 .102.269l-.085 1.329c.001.387-.157.78-.456 1.115a1.685 1.685 0 0 1-1.166.477zm.982-2.57-1.011.089a.94.94 0 0 0-.577.266.87.87 0 0 0-.028 1.256c.336.335.937.332 1.296-.007.106-.121.258-.354.258-.649l.062-.955zm2.912 6.611c-.422 0-.818-.163-1.114-.459a1.558 1.558 0 0 1-.46-1.115c0-.436.174-.848.489-1.162.217-.249.589-.426 1.004-.469l1.431-.085a.385.385 0 0 1 .269.103.35.35 0 0 1 .102.269l-.085 1.302c.001.407-.18.838-.47 1.128a1.65 1.65 0 0 1-1.166.488zm.996-2.568-1.021.061c-.222.023-.434.117-.55.25a.957.957 0 0 0-.299.684.872.872 0 0 0 .875.874.943.943 0 0 0 .935-.913l.06-.956z"></path>
</svg>
