<svg xmlns="http://www.w3.org/2000/svg" width="24" height="24" version="1.0" id="weather">
  <path fill="#010101" d="M15.965 13.848H6.167a.343.343 0 0 1-.156-.039c-1.684-.202-2.941-1.596-2.941-3.28a3.298 3.298 0 0 1 3.512-3.283 4.572 4.572 0 0 1 4.568-4.447c2.504 0 4.542 2.047 4.542 4.563 0 .045-.002.09-.005.135.044-.002.089-.004.136-.004 1.768 0 3.153 1.396 3.153 3.177a3.177 3.177 0 0 1-2.992 3.177l-.019.001zm-9.691-.7h9.68a2.476 2.476 0 0 0 2.321-2.477c0-1.389-1.077-2.477-2.453-2.477-.177 0-.329.025-.48.051a.35.35 0 0 1-.404-.395c.033-.222.053-.354.053-.487 0-2.13-1.723-3.863-3.841-3.863a3.87 3.87 0 0 0-3.87 3.863c0 .028.006.06.011.092.009.067.018.134.018.191a.35.35 0 0 1-.399.346c-.219-.032-.361-.053-.545-.053a2.595 2.595 0 0 0-2.595 2.59c0 1.352 1.032 2.466 2.401 2.593a.319.319 0 0 1 .103.026zm12.437 6.327a2.208 2.208 0 0 1-2.121-1.613.35.35 0 0 1 .675-.187c.182.658.763 1.1 1.446 1.1.852 0 1.519-.653 1.519-1.488s-.667-1.488-1.519-1.488h-6.428a.35.35 0 0 1 0-.7h6.428c1.244 0 2.219.961 2.219 2.188s-.975 2.188-2.219 2.188z"></path>
  <path fill="#010101" d="M13.728 21.201a2.223 2.223 0 0 1-2.121-1.611.35.35 0 0 1 .673-.193c.186.65.781 1.104 1.448 1.104.822 0 1.491-.667 1.491-1.488s-.668-1.488-1.491-1.488h-1.331a.35.35 0 0 1 0-.7h1.331c1.208 0 2.191.981 2.191 2.188s-.983 2.188-2.191 2.188zm-8.665-4.243a.35.35 0 0 1-.248-.598l1.161-1.159a.35.35 0 1 1 .495.495l-1.161 1.16a.35.35 0 0 1-.247.102zm2.151 0a.35.35 0 0 1-.248-.598l1.161-1.159a.35.35 0 1 1 .495.495l-1.161 1.159a.346.346 0 0 1-.247.103zm2.152 0a.35.35 0 0 1-.248-.598l1.161-1.159a.35.35 0 1 1 .495.495l-1.161 1.159a.344.344 0 0 1-.247.103zm-5.153 2.885a.35.35 0 0 1-.251-.595l1.133-1.159a.35.35 0 1 1 .501.489l-1.133 1.159a.344.344 0 0 1-.25.106zm2.152 0a.35.35 0 0 1-.251-.595l1.132-1.159a.35.35 0 1 1 .501.489l-1.132 1.159a.344.344 0 0 1-.25.106z"></path>
</svg>
